<svg id="Layer_1" data-name="Layer 1" xmlns="http://www.w3.org/2000/svg" viewBox="0 0 235.34 60.01"><defs><style>.cls-1{fill:#fff;}.cls-2{opacity:0.7;}</style></defs><path class="cls-1" d="M23.26,28.88V16.48C23.26,10.36,18,2.6.51,2.45A.51.51,0,0,0,0,3C.25,23.89,15.89,29.13,22.77,29.37A.48.48,0,0,0,23.26,28.88Z"/><path class="cls-1" d="M24.49,39.9V27.5c0-6.12,5.3-13.88,22.75-14a.51.51,0,0,1,.51.5C47.5,34.91,31.87,40.15,25,40.39A.48.48,0,0,1,24.49,39.9Z"/><path class="cls-1" d="M24.49,16.64V8.93C24.49,5.05,28.08.14,39.9,0a.5.5,0,0,1,.5.5c-.26,13-10.65,16.41-15.41,16.63A.48.48,0,0,1,24.49,16.64Z"/><g class="cls-2"><path class="cls-1" d="M24.49,59.51V39.83c0-11.11,13-14,22.77-14.12a.49.49,0,0,1,.49.5V44.63a.51.51,0,0,1-.49.51c-6.4.28-18.67,5.83-21.44,14.51a.51.51,0,0,1-.48.36H25A.5.5,0,0,1,24.49,59.51Z"/></g><g class="cls-2"><path class="cls-1" d="M23.26,53.56v-26c0-11.11-13-14-22.76-14.12A.5.5,0,0,0,0,14V38.68a.52.52,0,0,0,.5.51C6.89,39.47,19.17,45,21.93,53.7a.52.52,0,0,0,.49.36h.34A.5.5,0,0,0,23.26,53.56Z"/></g><path class="cls-1" d="M64.77,41.25v-.68l2.73-1V20.43l-2.73-1v-.68h9.15q5.67,0,8.74,2.94A9.55,9.55,0,0,1,85.77,29a12.1,12.1,0,0,1-3.38,8.88,11.67,11.67,0,0,1-8.71,3.41Zm8.81-20.93H70.17V39.65H74A8.49,8.49,0,0,0,80.51,37,9.92,9.92,0,0,0,83,30a9.86,9.86,0,0,0-2.46-7A8.89,8.89,0,0,0,73.58,20.32Zm18.23.58a1.63,1.63,0,0,1-1.74-1.74,1.74,1.74,0,1,1,3.48,0A1.54,1.54,0,0,1,91.81,20.9Zm-3,20.35V40.7l2.15-.85V28.52L88.7,27.19v-.35L93,25.55h.27v14.3l2.26.85v.55Zm14,.34a10.61,10.61,0,0,1-2.53-.27,11,11,0,0,1-2.15-.82V36.78h.44l.86,1.74a3.4,3.4,0,0,0,3.44,2c2.08,0,3.11-.9,3.11-2.69a2.45,2.45,0,0,0-.92-2.09,13.07,13.07,0,0,0-2.73-1.46,9,9,0,0,1-2.87-1.74,3.76,3.76,0,0,1-.92-2.7,3.93,3.93,0,0,1,1.43-3,4.72,4.72,0,0,1,3.18-1.26,8.26,8.26,0,0,1,2.32.3,11.42,11.42,0,0,1,1.94.79v3.62h-.44l-.85-1.67a3.12,3.12,0,0,0-1.27-1.51,3.19,3.19,0,0,0-1.63-.44c-1.76,0-2.63.82-2.63,2.46a2.32,2.32,0,0,0,.78,1.84,11.9,11.9,0,0,0,2.46,1.37,13.31,13.31,0,0,1,3,1.67A3.58,3.58,0,0,1,108,37.09a3.9,3.9,0,0,1-1.64,3.27A5.74,5.74,0,0,1,102.76,41.59Zm15.08,0a6.85,6.85,0,0,1-5.32-2.08,7.77,7.77,0,0,1-1.88-5.43A8.62,8.62,0,0,1,112.86,28a7.17,7.17,0,0,1,5.53-2.42A7.44,7.44,0,0,1,121,26a5.17,5.17,0,0,1,1.88,1c.5.51.75.89.75,1.17a.81.81,0,0,1-.34.64l-1.17,1h-.2L121,28.62a5.18,5.18,0,0,0-1.44-1.33,3.49,3.49,0,0,0-2-.55,4.11,4.11,0,0,0-3.38,1.64A7.33,7.33,0,0,0,112.93,33a7.55,7.55,0,0,0,1.4,4.61,5.38,5.38,0,0,0,4.57,1.88A7.87,7.87,0,0,0,123.54,38h.1v.38a6.73,6.73,0,0,1-2.28,2.32A6.64,6.64,0,0,1,117.84,41.59Zm11-20.69a1.63,1.63,0,0,1-1.74-1.74,1.74,1.74,0,0,1,3.48,0A1.54,1.54,0,0,1,128.82,20.9Zm-3,20.35V40.7l2.15-.85V28.52l-2.22-1.33v-.35L130,25.55h.27v14.3l2.26.85v.55Zm8.93,7.85v-.54l2.15-.86V28.52l-2.22-1.16V27l4-1.43h.27l.21,2.08h.2a7.85,7.85,0,0,1,5.12-2.08,5.37,5.37,0,0,1,4.24,1.94,8,8,0,0,1,1.67,5.33,8.73,8.73,0,0,1-2.29,6.48,7.51,7.51,0,0,1-5.53,2.29,10.68,10.68,0,0,1-3.35-.54V47.7l2.43.86v.54Zm8.23-21.68a6.11,6.11,0,0,0-3.76,1.3V38.83a7.11,7.11,0,0,0,4.41,1.43,4.09,4.09,0,0,0,3.14-1.5c.91-1,1.36-2.69,1.36-5q0-3.29-1.57-4.78A5,5,0,0,0,142.94,27.42Zm9.31,13.83V40.7l2.15-.85V18.62l-2.22-1.33v-.35l4.27-1.29h.27v24.2l2.25.85v.55Zm15.8.34a6.85,6.85,0,0,1-5.32-2.08,7.69,7.69,0,0,1-1.91-5.43A8.81,8.81,0,0,1,163,28a6.5,6.5,0,0,1,5-2.45,5.21,5.21,0,0,1,4.23,1.84,8.34,8.34,0,0,1,1.64,5.19l-.14.14H163.1V33a7.62,7.62,0,0,0,1.4,4.61,5.45,5.45,0,0,0,4.61,1.88A7.9,7.9,0,0,0,173.76,38h.1v.38a6.42,6.42,0,0,1-2.29,2.32A6.62,6.62,0,0,1,168.05,41.59Zm-.58-14.85a3.68,3.68,0,0,0-2.8,1.26,6.13,6.13,0,0,0-1.46,3.49h8.33C171.08,28.32,169.73,26.74,167.47,26.74Z"/><path class="cls-1" d="M183.64,41.25v-.68l2.69-1V20.43l-2.69-1v-.68h8.43v.68l-3.08,1V39.65h8.68l2-5.84h.58v7.44Zm22.7-20.35a1.63,1.63,0,0,1-1.74-1.74,1.74,1.74,0,1,1,3.48,0A1.54,1.54,0,0,1,206.34,20.9Zm-3,20.35V40.7l2.15-.85V28.52l-2.22-1.33v-.35l4.27-1.29h.27v14.3l2.26.85v.55Zm9.14,0V40.7l2.15-.85V27.32h-2.8V25.89h2.8V24.52a9.3,9.3,0,0,1,.88-3.48,11.2,11.2,0,0,1,2.6-3.75,5.71,5.71,0,0,1,4.13-1.64,2.52,2.52,0,0,1,1,.24c.55.22.82.49.82.78a1.23,1.23,0,0,1-.1.55l-.55,1.36h-.17l-.85-.3a6,6,0,0,0-2.15-.38,2.7,2.7,0,0,0-2.56,1.3,8,8,0,0,0-.75,4v2.73h4.5v1.43h-4.5V39.89l2.49.81v.55Zm17.1.34a6.87,6.87,0,0,1-5.33-2.08,7.74,7.74,0,0,1-1.91-5.43A8.86,8.86,0,0,1,224.45,28a6.51,6.51,0,0,1,5-2.45,5.19,5.19,0,0,1,4.23,1.84,8.28,8.28,0,0,1,1.64,5.19l-.14.14H224.59V33A7.55,7.55,0,0,0,226,37.6a5.42,5.42,0,0,0,4.6,1.88A7.87,7.87,0,0,0,235.24,38h.1v.38a6.34,6.34,0,0,1-2.29,2.32A6.61,6.61,0,0,1,229.54,41.59ZM229,26.74a3.65,3.65,0,0,0-2.8,1.26,6.07,6.07,0,0,0-1.47,3.49H233Q232.33,26.74,229,26.74Z"/></svg>